<?xml version="1.0" encoding="UTF-8" standalone="no"?>
<!-- Created with Inkscape (http://www.inkscape.org/) -->

<svg
   width="128"
   height="128"
   viewBox="0 0 33.866666 33.866666"
   version="1.1"
   id="svg5"
   xml:space="preserve"
   inkscape:version="1.2.2 (732a01da63, 2022-12-09)"
   sodipodi:docname="icon.svg"
   inkscape:export-filename="..\..\..\icon.png"
   inkscape:export-xdpi="96"
   inkscape:export-ydpi="96"
   xmlns:inkscape="http://www.inkscape.org/namespaces/inkscape"
   xmlns:sodipodi="http://sodipodi.sourceforge.net/DTD/sodipodi-0.dtd"
   xmlns="http://www.w3.org/2000/svg"
   xmlns:svg="http://www.w3.org/2000/svg"><sodipodi:namedview
     id="namedview7"
     pagecolor="#ffffff"
     bordercolor="#666666"
     borderopacity="1.0"
     inkscape:showpageshadow="2"
     inkscape:pageopacity="0.0"
     inkscape:pagecheckerboard="0"
     inkscape:deskcolor="#d1d1d1"
     inkscape:document-units="mm"
     showgrid="false"
     inkscape:zoom="1.2918636"
     inkscape:cx="22.061153"
     inkscape:cy="73.537175"
     inkscape:window-width="1920"
     inkscape:window-height="1017"
     inkscape:window-x="0"
     inkscape:window-y="0"
     inkscape:window-maximized="0"
     inkscape:current-layer="layer1" /><defs
     id="defs2" /><g
     inkscape:label="Capa 1"
     inkscape:groupmode="layer"
     id="layer1"><rect
       x="0.52916503"
       y="0.52916503"
       width="32.808334"
       height="32.808334"
       rx="3.7041667"
       fill="#363d52"
       stroke="#212532"
       stroke-width="1.05833"
       id="rect150" /><path
       d="m 6.2555853,13.850272 v 5.134948 0.652218 0.593534 c 0.012283,9.8e-5 0.023332,4.9e-4 0.034849,0.0015 l 3.9117817,0.377172 c 0.204902,0.01978 0.365494,0.184695 0.379757,0.390034 l 0.120674,1.72678 3.412288,0.243487 0.235054,-1.593743 c 0.03055,-0.206592 0.207713,-0.35973 0.416728,-0.35973 h 4.127062 c 0.208908,0 0.386144,0.153131 0.41662,0.359772 l 0.235054,1.593744 3.412395,-0.243488 0.120521,-1.726779 c 0.01382,-0.20534 0.174857,-0.37015 0.379773,-0.390034 l 3.910262,-0.377173 c 0.01075,-0.0011 0.02318,-0.0015 0.03485,-0.0015 v -0.509131 l 0.0015,-5.86e-4 v -5.870983 c 0.550943,-0.693444 1.072547,-1.458351 1.472172,-2.1019 C 28.266191,10.708717 27.517899,9.7796181 26.718068,8.9188208 25.976256,9.2922107 25.255738,9.7152069 24.5752,10.165328 24.23467,9.8268449 23.85112,9.5499638 23.474372,9.2605451 23.104227,8.9632386 22.68707,8.7452565 22.291422,8.4912871 22.409181,7.6140635 22.46746,6.7504562 22.490919,5.8491318 21.470066,5.3353572 20.381444,4.9947136 19.280295,4.7500368 c -0.439634,0.7388909 -0.841653,1.5390597 -1.19181,2.3212869 -0.415222,-0.06938 -0.83238,-0.095096 -1.250074,-0.100071 v -6.482e-4 c -0.0031,0 -0.0061,6.482e-4 -0.0077,6.482e-4 -0.0031,0 -0.0061,-6.482e-4 -0.0077,-6.482e-4 v 6.482e-4 c -0.418462,0.00495 -0.835297,0.030692 -1.250612,0.100071 C 15.222457,6.2890965 14.820638,5.4889277 14.38036,4.7500368 13.279747,4.9947136 12.191034,5.3353572 11.170288,5.8491318 11.193618,6.7504562 11.251968,7.6140635 11.37,8.4912871 10.973609,8.7452565 10.556989,8.9632386 10.186735,9.2605451 9.810598,9.5499638 9.4264037,9.8268449 9.0857516,10.165328 8.4052283,9.7152069 7.6849255,9.2922107 6.9428981,8.9188208 6.1430524,9.7796181 5.3951911,10.708717 4.7842633,11.748373 c 0.4801196,0.753663 0.9951215,1.511163 1.4720477,2.101899 z"
       fill="#478cbf"
       id="path250"
       style="display:inline;stroke-width:0.108073"
       inkscape:label="head" /><g
       id="g6008"
       inkscape:label="right_eye"
       transform="matrix(1.5353026,0,0,1.5353026,3.8334307,3.0416439)"><path
         d="m 6.3889272,8.7271181 c 0,0.8483592 -0.6873737,1.5355919 -1.5354517,1.5355919 -0.8476553,0 -1.5352403,-0.6872327 -1.5352403,-1.5355919 0,-0.8477963 0.687585,-1.5346775 1.5352403,-1.5346775 0.848078,0 1.5354517,0.6868812 1.5354517,1.5346775"
         fill="#ffffff"
         id="path254"
         style="display:inline;stroke-width:0.0703918" /><path
         d="m 6.0194683,8.8181935 c 0,0.5627102 -0.456067,1.0187769 -1.0191997,1.0187769 -0.5628511,0 -1.0191998,-0.4560667 -1.0191998,-1.0187769 0,-0.5627102 0.4563487,-1.0192001 1.0191998,-1.0192001 0.5631327,0 1.0191997,0.4564899 1.0191997,1.0192001"
         fill="#414042"
         id="path256"
         style="display:inline;stroke-width:0.0703918" /></g><g
       id="g6004"
       inkscape:label="left_eye"
       transform="matrix(1.5353026,0,0,1.5353026,3.8334307,3.0416439)"><path
         d="m 10.541662,8.7271181 c 0,0.8483592 0.687373,1.5355919 1.535592,1.5355919 0.847585,0 1.5351,-0.6872327 1.5351,-1.5355919 0,-0.8477963 -0.687515,-1.5346775 -1.5351,-1.5346775 -0.848219,0 -1.535592,0.6868812 -1.535592,1.5346775"
         fill="#ffffff"
         id="path260"
         style="display:inline;stroke-width:0.0703918" /><path
         d="m 10.911214,8.8181935 c 0,0.5627102 0.455926,1.0187769 1.018636,1.0187769 0.563273,0 1.0192,-0.4560667 1.0192,-1.0187769 0,-0.5627102 -0.455927,-1.0192001 -1.0192,-1.0192001 -0.56271,0 -1.018636,0.4564899 -1.018636,1.0192001"
         fill="#414042"
         id="path262"
         style="display:inline;stroke-width:0.0703918"
         inkscape:label="path262" /></g><path
       style="display:inline;fill:#00e26b;fill-opacity:1;stroke:#00e26b;stroke-width:0.395346px;stroke-linecap:butt;stroke-linejoin:miter;stroke-opacity:1"
       d="m 6.7286736,27.58407 c 1.4471913,0.550801 2.6726701,-0.353485 3.5690714,-1.260686 l 3.424262,-3.775031 6.331021,0.03218 3.037121,3.276312 c 0.399592,0.421201 1.570567,2.159003 3.600974,1.845804 1.728,-0.388802 1.647654,-2.423224 1.604456,-3.352025 l -0.721887,-8.21533 C 27.511827,15.218339 26.93955,14.184038 26.029039,13.267617 25.479585,12.774234 24.625082,11.77959 22.550597,11.757163 l -11.448261,0.01504 c -1.1661696,0.08971 -1.9086423,0.262465 -3.1421042,1.271659 -0.9867694,0.91949 -1.5120886,1.590934 -1.7705573,3.345416 l -0.675671,7.335776 c -0.1835911,1.911603 -0.059722,3.124595 1.2146701,3.858996 z"
       id="path1283"
       sodipodi:nodetypes="ccccccccccccccc"
       inkscape:label="controller" /><g
       id="g5781"
       inkscape:label="buttons"
       style="display:inline"
       transform="matrix(1.5353026,0,0,1.5353026,3.8334307,3.3872435)"><path
         style="fill:#ffffff;fill-opacity:1;stroke:none;stroke-width:0.0928545;stroke-linecap:round;stroke-linejoin:round;stroke-dasharray:none;stroke-opacity:1;paint-order:fill markers stroke;stop-color:#000000"
         id="path3503"
         sodipodi:type="arc"
         sodipodi:cx="10.818992"
         sodipodi:cy="8.8704472"
         sodipodi:rx="0.6074577"
         sodipodi:ry="0.6074577"
         sodipodi:start="1.1088271"
         sodipodi:end="1.102134"
         sodipodi:open="true"
         sodipodi:arc-type="arc"
         d="M 11.089743,9.414229 A 0.6074577,0.6074577 0 0 1 10.275664,9.1421077 0.6074577,0.6074577 0 0 1 10.546422,8.3275744 0.6074577,0.6074577 0 0 1 11.361408,8.5969698 0.6074577,0.6074577 0 0 1 11.093376,9.4124047" /><path
         style="fill:#ffffff;fill-opacity:1;stroke:none;stroke-width:0.0928545;stroke-linecap:round;stroke-linejoin:round;stroke-dasharray:none;stroke-opacity:1;paint-order:fill markers stroke;stop-color:#000000"
         id="path3503-8"
         sodipodi:type="arc"
         sodipodi:cx="12.071127"
         sodipodi:cy="7.6253495"
         sodipodi:rx="0.6074577"
         sodipodi:ry="0.6074577"
         sodipodi:start="1.1088271"
         sodipodi:end="1.102134"
         sodipodi:open="true"
         sodipodi:arc-type="arc"
         d="M 12.341878,8.1691314 A 0.6074577,0.6074577 0 0 1 11.527799,7.8970101 0.6074577,0.6074577 0 0 1 11.798558,7.0824768 0.6074577,0.6074577 0 0 1 12.613543,7.3518722 0.6074577,0.6074577 0 0 1 12.345511,8.1673071" /><path
         style="fill:#ffffff;fill-opacity:1;stroke:none;stroke-width:0.0928545;stroke-linecap:round;stroke-linejoin:round;stroke-dasharray:none;stroke-opacity:1;paint-order:fill markers stroke;stop-color:#000000"
         id="path3503-8-9"
         sodipodi:type="arc"
         sodipodi:cx="13.323258"
         sodipodi:cy="8.8704481"
         sodipodi:rx="0.6074577"
         sodipodi:ry="0.6074577"
         sodipodi:start="1.1088271"
         sodipodi:end="1.102134"
         sodipodi:open="true"
         sodipodi:arc-type="arc"
         d="M 13.594009,9.41423 A 0.6074577,0.6074577 0 0 1 12.77993,9.1421087 0.6074577,0.6074577 0 0 1 13.050689,8.3275754 0.6074577,0.6074577 0 0 1 13.865674,8.5969708 0.6074577,0.6074577 0 0 1 13.597643,9.4124057" /><path
         style="fill:#ffffff;fill-opacity:1;stroke:none;stroke-width:0.0928545;stroke-linecap:round;stroke-linejoin:round;stroke-dasharray:none;stroke-opacity:1;paint-order:fill markers stroke;stop-color:#000000"
         id="path3503-8-9-4"
         sodipodi:type="arc"
         sodipodi:cx="12.078159"
         sodipodi:cy="10.122581"
         sodipodi:rx="0.6074577"
         sodipodi:ry="0.6074577"
         sodipodi:start="1.1088271"
         sodipodi:end="1.102134"
         sodipodi:open="true"
         sodipodi:arc-type="arc"
         d="M 12.34891,10.666362 A 0.6074577,0.6074577 0 0 1 11.534831,10.394241 0.6074577,0.6074577 0 0 1 11.80559,9.5797078 0.6074577,0.6074577 0 0 1 12.620575,9.8491032 0.6074577,0.6074577 0 0 1 12.352544,10.664538" /></g><path
       d="m 27.403228,20.230974 c 0,0 -0.03516,-0.215496 -0.05557,-0.21355 l -3.910277,0.377284 c -0.31113,0.03005 -0.552787,0.278174 -0.574619,0.589964 l -0.10747,1.539707 -3.025161,0.21582 -0.205776,-1.395429 c -0.04575,-0.310385 -0.316871,-0.54436 -0.630595,-0.54436 h -4.127063 c -0.313631,0 -0.584673,0.233975 -0.630502,0.54436 l -0.205869,1.395429 -3.025176,-0.21582 -0.107471,-1.539707 c -0.02181,-0.311897 -0.263478,-0.56003 -0.574623,-0.590075 L 6.3108407,20.017424 c -0.020269,-0.0019 -0.035007,0.213768 -0.055267,0.213768 l -0.00617,0.846207 3.3132748,0.534309 0.1085465,1.553433 c 0.021959,0.314491 0.2756937,0.568785 0.5904,0.591373 l 4.166304,0.297199 c 0.01582,0.0011 0.03132,0.0017 0.04698,0.0017 0.313079,0 0.583691,-0.234084 0.62952,-0.544467 l 0.211718,-1.43585 h 3.026557 l 0.211718,1.43585 c 0.04575,0.310275 0.316657,0.544361 0.630165,0.544361 0.01535,0 0.03071,-4.91e-4 0.04575,-0.0015 l 4.166842,-0.297199 c 0.314598,-0.02261 0.568461,-0.276881 0.590401,-0.591373 l 0.108392,-1.553433 3.311877,-0.536686 z"
       fill="#ffffff"
       id="path248"
       style="display:inline;stroke-width:0.108073"
       inkscape:label="mouth" /><path
       d="m 23.893879,21.41412 -0.121136,1.735966 c -0.01382,0.209227 -0.181012,0.375767 -0.390242,0.390788 l -4.166735,0.297308 c -0.01075,7.85e-4 -0.02027,0.0011 -0.0304,0.0011 -0.207066,0 -0.385714,-0.151948 -0.416297,-0.359881 L 18.53014,21.859005 h -3.399851 l -0.238953,1.620436 c -0.03209,0.218091 -0.227057,0.374903 -0.446651,0.3588 l -4.16673,-0.297367 c -0.20923,-0.01505 -0.3756577,-0.181561 -0.3902583,-0.39079 l -0.121135,-1.735966 -3.517424,-0.339132 c 0.00149,0.378036 0.00617,0.79217 0.00617,0.87463 0,3.71488 4.7124883,5.500452 10.5674273,5.520984 h 0.0077 0.0077 c 5.854922,-0.02054 10.565799,-1.806104 10.565799,-5.520984 0,-0.08397 0.0046,-0.496377 0.0061,-0.87463 z"
       fill="#478cbf"
       id="path252"
       style="display:inline;stroke-width:0.108073"
       inkscape:label="jaw" /><path
       d="m 16.830013,19.012488 c -0.419106,0 -0.758777,-0.30887 -0.758777,-0.689607 V 16.15268 c 0,-0.380416 0.339671,-0.68961 0.758777,-0.68961 0.419107,0 0.759545,0.309194 0.759545,0.68961 v 2.170201 c 0,0.380737 -0.340438,0.689607 -0.759545,0.689607"
       fill="#ffffff"
       id="path258"
       style="display:inline;stroke-width:0.108073"
       inkscape:label="nose" /><path
       style="display:none;fill:#00e26b;fill-opacity:1;stroke:#00e26b;stroke-width:0.240517px;stroke-linecap:butt;stroke-linejoin:miter;stroke-opacity:1"
       d="m 2.7757188,15.799141 c 0.8804329,0.33509 1.6259732,-0.21505 2.171316,-0.766963 l 2.029047,-2.164376 C 5.7195387,11.968176 4.3566441,11.556548 2.4478126,8.9885899 L 2.0367591,13.451448 c -0.1116966,1.16296 -0.036346,1.900906 0.7389597,2.347693 z"
       id="path17275"
       sodipodi:nodetypes="cccccc"
       inkscape:label="controller_left_horn" /><path
       sodipodi:type="star"
       style="display:none;fill:#11753e;fill-opacity:1;stroke:#11753e;stroke-width:1.79001;stroke-linecap:round;stroke-linejoin:round;stroke-dasharray:none;stroke-opacity:1;paint-order:fill markers stroke;stop-color:#000000"
       id="path509"
       inkscape:flatsided="true"
       sodipodi:sides="3"
       sodipodi:cx="-30.345362"
       sodipodi:cy="-12.163223"
       sodipodi:r1="8.1978178"
       sodipodi:r2="4.0989089"
       sodipodi:arg1="0"
       sodipodi:arg2="1.0471976"
       inkscape:rounded="0"
       inkscape:randomized="0"
       d="m -22.147544,-12.163223 -12.296727,7.0995182 V -19.262742 Z"
       inkscape:transform-center-x="-0.95710968"
       transform="matrix(0.46700739,0,0,0.46700739,19.756734,15.057795)"
       inkscape:label="triangle" /><g
       id="g5785"
       inkscape:label="d-pad"
       style="display:inline"
       transform="matrix(1.5353026,0,0,1.5353026,3.8334307,3.3872435)"><path
         style="display:inline;fill:#ffffff;fill-opacity:1;stroke:none;stroke-width:0.266555;stroke-linecap:round;stroke-linejoin:bevel;stroke-opacity:1;-inkscape-stroke:none;paint-order:fill markers stroke;stop-color:#000000"
         id="path1604"
         sodipodi:type="arc"
         sodipodi:cx="4.9170833"
         sodipodi:cy="8.8845148"
         sodipodi:rx="2.0470264"
         sodipodi:ry="2.0470264"
         sodipodi:start="1.1088271"
         sodipodi:end="1.102134"
         sodipodi:open="true"
         sodipodi:arc-type="arc"
         d="M 5.829467,10.716965 A 2.0470264,2.0470264 0 0 1 3.0861625,9.7999635 2.0470264,2.0470264 0 0 1 3.9985722,7.0551284 2.0470264,2.0470264 0 0 1 6.7449302,7.962944 2.0470264,2.0470264 0 0 1 5.8417113,10.710817" /><path
         style="fill:#478cbf;fill-opacity:1;stroke:#478cbf;stroke-width:0.102432;stroke-linecap:butt;stroke-linejoin:round;stroke-dasharray:none;stroke-opacity:1"
         d="m 4.5718181,7.4438408 h 0.7193546 l 4.6e-6,1.0669303 1.0525189,4e-7 0.0072,0.7334233 -1.0598955,-0.01441 -0.00704,1.0672732 H 4.5646115 l 0.0072,-1.067274 -1.0811701,0.0072 -3.421e-4,-0.7262177 1.0743069,-0.0072 z"
         id="path2849"
         sodipodi:nodetypes="ccccccccccccc" /></g></g></svg>
